<svg width="27" height="29" viewBox="0 0 27 29" fill="none" xmlns="http://www.w3.org/2000/svg">
<path d="M7.51874 21.877C7.93849 21.877 8.29059 21.7291 8.57503 21.4333C8.85948 21.1375 9.00121 20.7718 9.00022 20.3363C8.99923 19.9008 8.85701 19.5351 8.57355 19.2393C8.29009 18.9435 7.93849 18.7956 7.51874 18.7956C7.09898 18.7956 6.74738 18.9435 6.46392 19.2393C6.18046 19.5351 6.03824 19.9008 6.03725 20.3363C6.03627 20.7718 6.17849 21.138 6.46392 21.4348C6.74935 21.7317 7.10096 21.8791 7.51874 21.877ZM7.51874 15.7141C7.93849 15.7141 8.29059 15.5662 8.57503 15.2703C8.85948 14.9745 9.00121 14.6089 9.00022 14.1733C8.99923 13.7378 8.85701 13.3722 8.57355 13.0763C8.29009 12.7805 7.93849 12.6326 7.51874 12.6326C7.09898 12.6326 6.74738 12.7805 6.46392 13.0763C6.18046 13.3722 6.03824 13.7378 6.03725 14.1733C6.03627 14.6089 6.17849 14.975 6.46392 15.2719C6.74935 15.5687 7.10096 15.7161 7.51874 15.7141ZM7.51874 9.55112C7.93849 9.55112 8.29059 9.4032 8.57503 9.10738C8.85948 8.81156 9.00121 8.44589 9.00022 8.01038C8.99923 7.57486 8.85701 7.20919 8.57355 6.91337C8.29009 6.61755 7.93849 6.46963 7.51874 6.46963C7.09898 6.46963 6.74738 6.61755 6.46392 6.91337C6.18046 7.20919 6.03824 7.57486 6.03725 8.01038C6.03627 8.44589 6.17849 8.81207 6.46392 9.10892C6.74935 9.40577 7.10096 9.55317 7.51874 9.55112ZM13.4447 21.877H19.3706C19.7903 21.877 20.1424 21.7291 20.4269 21.4333C20.7113 21.1375 20.8531 20.7718 20.8521 20.3363C20.8511 19.9008 20.7089 19.5351 20.4254 19.2393C20.1419 18.9435 19.7903 18.7956 19.3706 18.7956H13.4447C13.0249 18.7956 12.6733 18.9435 12.3898 19.2393C12.1064 19.5351 11.9642 19.9008 11.9632 20.3363C11.9622 20.7718 12.1044 21.138 12.3898 21.4348C12.6753 21.7317 13.0269 21.8791 13.4447 21.877ZM13.4447 15.7141H19.3706C19.7903 15.7141 20.1424 15.5662 20.4269 15.2703C20.7113 14.9745 20.8531 14.6089 20.8521 14.1733C20.8511 13.7378 20.7089 13.3722 20.4254 13.0763C20.1419 12.7805 19.7903 12.6326 19.3706 12.6326H13.4447C13.0249 12.6326 12.6733 12.7805 12.3898 13.0763C12.1064 13.3722 11.9642 13.7378 11.9632 14.1733C11.9622 14.6089 12.1044 14.975 12.3898 15.2719C12.6753 15.5687 13.0269 15.7161 13.4447 15.7141ZM13.4447 9.55112H19.3706C19.7903 9.55112 20.1424 9.4032 20.4269 9.10738C20.7113 8.81156 20.8531 8.44589 20.8521 8.01038C20.8511 7.57486 20.7089 7.20919 20.4254 6.91337C20.1419 6.61755 19.7903 6.46963 19.3706 6.46963H13.4447C13.0249 6.46963 12.6733 6.61755 12.3898 6.91337C12.1064 7.20919 11.9642 7.57486 11.9632 8.01038C11.9622 8.44589 12.1044 8.81207 12.3898 9.10892C12.6753 9.40577 13.0269 9.55317 13.4447 9.55112ZM3.07429 28.04C2.25948 28.04 1.56219 27.7385 0.982439 27.1356C0.402686 26.5326 0.112316 25.807 0.111328 24.9585V3.38815C0.111328 2.54075 0.401699 1.81557 0.982439 1.21263C1.56318 0.609684 2.26046 0.307698 3.07429 0.306671H23.815C24.6298 0.306671 25.3276 0.608656 25.9084 1.21263C26.4891 1.8166 26.779 2.54177 26.778 3.38815V24.9585C26.778 25.8059 26.4881 26.5316 25.9084 27.1356C25.3286 27.7396 24.6308 28.041 23.815 28.04H3.07429ZM3.07429 24.9585H23.815V3.38815H3.07429V24.9585Z" fill="#F9F6FC"/>
</svg>
