<svg width="27" height="20" viewBox="0 0 27 20" fill="none" xmlns="http://www.w3.org/2000/svg">
<path d="M1.81498 19.0711C1.39523 19.0711 1.04362 18.9232 0.760168 18.6274C0.476711 18.3316 0.334489 17.9659 0.333501 17.5304C0.332514 17.0949 0.474736 16.7292 0.760168 16.4334C1.0456 16.1375 1.3972 15.9896 1.81498 15.9896H25.5187C25.9384 15.9896 26.2905 16.1375 26.575 16.4334C26.8594 16.7292 27.0012 17.0949 27.0002 17.5304C26.9992 17.9659 26.857 18.3321 26.5735 18.6289C26.29 18.9258 25.9384 19.0732 25.5187 19.0711H1.81498ZM1.81498 11.3674C1.39523 11.3674 1.04362 11.2195 0.760168 10.9237C0.476711 10.6279 0.334489 10.2622 0.333501 9.82667C0.332514 9.39115 0.474736 9.02548 0.760168 8.72966C1.0456 8.43384 1.3972 8.28593 1.81498 8.28593H25.5187C25.9384 8.28593 26.2905 8.43384 26.575 8.72966C26.8594 9.02548 27.0012 9.39115 27.0002 9.82667C26.9992 10.2622 26.857 10.6284 26.5735 10.9252C26.29 11.2221 25.9384 11.3695 25.5187 11.3674H1.81498ZM1.81498 3.6637C1.39523 3.6637 1.04362 3.51579 0.760168 3.21997C0.476711 2.92415 0.334489 2.55848 0.333501 2.12296C0.332514 1.68745 0.474736 1.32178 0.760168 1.02596C1.0456 0.730133 1.3972 0.582222 1.81498 0.582222H25.5187C25.9384 0.582222 26.2905 0.730133 26.575 1.02596C26.8594 1.32178 27.0012 1.68745 27.0002 2.12296C26.9992 2.55848 26.857 2.92466 26.5735 3.22151C26.29 3.51836 25.9384 3.66576 25.5187 3.6637H1.81498Z" fill="black"/>
</svg>
