<svg width="23" height="20" viewBox="0 0 23 20" fill="none" xmlns="http://www.w3.org/2000/svg">
<path fill-rule="evenodd" clip-rule="evenodd" d="M1.92748 7.23989C1.92748 5.31975 2.66091 3.47826 3.96643 2.12052C5.27195 0.762772 7.04261 0 8.88889 0C10.7352 0 12.5058 0.762772 13.8113 2.12052C15.1169 3.47826 15.8503 5.31975 15.8503 7.23989V11.1329L17.6623 14.9018C17.7457 15.0752 17.7851 15.268 17.7767 15.4618C17.7683 15.6555 17.7124 15.8438 17.6144 16.0088C17.5163 16.1738 17.3794 16.3099 17.2165 16.4044C17.0536 16.4988 16.8702 16.5484 16.6837 16.5483H12.7415C12.5203 17.436 12.022 18.2221 11.3246 18.7833C10.6273 19.3445 9.7706 19.649 8.88889 19.649C8.00718 19.649 7.15043 19.3445 6.45313 18.7833C5.75583 18.2221 5.25746 17.436 5.03625 16.5483H1.0941C0.90761 16.5484 0.72421 16.4988 0.561318 16.4044C0.398427 16.3099 0.261451 16.1738 0.163402 16.0088C0.0653528 15.8438 0.00948513 15.6555 0.00110516 15.4618C-0.00727481 15.268 0.0321112 15.0752 0.115522 14.9018L1.92748 11.1329V7.23989ZM7.16644 16.5483C7.34101 16.8628 7.59209 17.1239 7.89445 17.3054C8.1968 17.4869 8.53977 17.5825 8.88889 17.5825C9.23801 17.5825 9.58098 17.4869 9.88333 17.3054C10.1857 17.1239 10.4368 16.8628 10.6113 16.5483H7.16644ZM8.88889 2.06854C7.57012 2.06854 6.30536 2.61338 5.37285 3.58319C4.44033 4.55301 3.91645 5.86836 3.91645 7.23989V11.1329C3.91643 11.4539 3.84459 11.7704 3.70662 12.0575L2.54307 14.4798H15.2357L14.0722 12.0575C13.9338 11.7705 13.8617 11.4539 13.8613 11.1329V7.23989C13.8613 5.86836 13.3374 4.55301 12.4049 3.58319C11.4724 2.61338 10.2077 2.06854 8.88889 2.06854Z" fill="#1E1E1E"/>
</svg>
