<svg width="49" height="49" viewBox="0 0 49 49" fill="none" xmlns="http://www.w3.org/2000/svg">
<path fill-rule="evenodd" clip-rule="evenodd" d="M24.4999 2.6919e-10C27.7173 -1.50813e-05 30.9032 0.633683 33.8757 1.86491C36.8482 3.09614 39.549 4.90079 41.8241 7.17583C44.0991 9.45086 45.9038 12.1517 47.135 15.1242C48.3663 18.0967 49 21.2826 49 24.4999C49 38.0309 38.0309 49 24.4999 49C10.9691 49 0 38.0309 0 24.4999C0 10.9691 10.9691 2.6919e-10 24.4999 2.6919e-10ZM26.95 26.95H22.05C15.9845 26.95 10.7772 30.6235 8.53116 35.8674C12.0849 40.8506 17.913 44.1 24.4999 44.1C31.0869 44.1 36.915 40.8506 40.4688 35.8671C38.2228 30.6235 33.0155 26.95 26.95 26.95ZM24.4999 7.34999C20.4407 7.34999 17.1499 10.6407 17.1499 14.7C17.1499 18.7593 20.4407 22.05 24.4999 22.05C28.5592 22.05 31.8499 18.7593 31.8499 14.7C31.8499 10.6407 28.5593 7.34999 24.4999 7.34999Z" fill="#BDBDBD"/>
</svg>
